PathFileType	4	(X/Y/Z)	D:\TRACE\spotREDO_2-26-24\spot_justBody_Motion_2_5-v60.trc
DataRate	CameraRate	NumFrames	NumMarkers	Units	OrigDataRate	OrigDataStartFrame	OrigNumFrames
100.00	100.00	      14	9	mm	100.00	1751	      7000
Frame#	Time	front left toe			Front right toe			aft left toe			aft right toe			Arm			FL body			FR body			AL Body			AR Body			
		X1	Y1	Z1	X2	Y2	Z2	X3	Y3	Z3	X4	Y4	Z4	X5	Y5	Z5	X6	Y6	Z6	X7	Y7	Z7	X8	Y8	Z8	X9	Y9	Z9	

1751	17.500	-280.79855	36.04216	-70.85755	243.90823	32.08512	-83.95085	-128.47685	-15.34240	419.45245	335.51230	-4.57022	363.14035	21.48125	806.69275	-216.76489	-61.59327	547.41418	-186.75311	93.05225	550.47144	-209.26622	55.09220	539.85321	689.38470	201.94853	538.89600	670.95135	
1752	17.510	-281.34430	35.99127	-70.87915	243.10728	31.91730	-83.93966	-129.13394	-15.35390	419.49030	335.28391	-4.54341	363.19073	21.64700	807.19397	-215.67429	-61.81279	548.13116	-186.15163	92.98445	550.89880	-208.29762	54.60630	539.42249	690.28693	202.05122	538.30847	671.68030	
1753	17.520	-282.05438	36.16741	-70.95469	242.71677	32.05648	-83.92129	-129.47029	-15.51054	419.52008	334.58261	-4.71975	363.29404	21.64911	807.58093	-214.52242	-61.90559	548.73328	-185.56851	92.86914	551.22235	-207.59584	54.43859	538.81030	691.03278	201.62628	537.59869	672.33484	
1754	17.530	-282.84006	36.21822	-70.78822	243.52245	32.78501	-83.45132	-130.32306	-15.54493	419.50626	333.68463	-4.89351	363.45001	21.38168	808.07080	-213.63499	-62.36108	549.18225	-184.96078	92.59286	551.60101	-206.88489	54.24201	538.06555	691.84644	201.32494	536.94257	673.13330	
1755	17.540	-283.23175	36.13913	-70.71267	241.35503	31.79482	-83.91412	-130.95145	-15.53313	419.57391	333.06967	-4.94527	363.48599	21.64626	808.45361	-212.51256	-62.23827	549.39838	-183.79126	92.82243	551.97534	-206.02954	53.97169	537.67761	692.47430	201.52440	536.36963	673.76129	
1756	17.550	-283.85516	36.05082	-70.66770	240.94092	31.97075	-83.77007	-131.73779	-15.29181	419.64124	332.57077	-4.73043	363.71518	21.16780	809.32397	-211.47142	-62.27721	549.93512	-183.01082	92.54591	552.46643	-205.26752	53.85959	537.22107	693.14435	201.34723	535.62549	674.64490	
1757	17.560	-284.53778	36.18243	-70.59563	240.55800	32.07778	-83.57703	-132.08998	-15.25985	419.64578	331.74371	-4.87199	363.74353	21.21012	809.66589	-210.47488	-62.51612	550.44403	-182.47592	91.73653	552.81897	-204.61327	53.67577	536.61066	694.20587	201.00926	535.10840	675.18481	
1758	17.570	-285.25589	36.19808	-70.52452	238.93787	31.79564	-83.95610	-132.75310	-15.23399	419.67130	330.95468	-4.84756	363.83948	21.15822	810.23260	-209.40791	-62.86067	551.24762	-181.74902	92.05373	553.60724	-204.12231	53.40202	536.15424	694.59747	200.95615	534.71875	675.98145	
1759	17.580	-286.08066	36.16394	-70.79974	238.47072	31.76731	-83.92705	-133.71703	-15.14725	419.71899	330.49521	-4.74905	363.93173	20.91161	810.76581	-208.44115	-63.35733	551.81476	-181.42871	91.77693	554.03699	-203.10272	53.26344	535.60144	695.32892	200.93460	534.12885	676.62695	
1760	17.590	-286.79358	36.10361	-70.91451	238.01569	31.59465	-83.75661	-134.73749	-15.08895	419.74100	329.83557	-4.67721	363.97971	20.88923	811.23877	-207.37029	-63.34417	552.15192	-180.09242	91.62289	554.55432	-202.39986	53.53265	535.01245	696.17346	200.76244	533.54309	677.27100	
1761	17.600	-287.33630	36.04854	-70.80077	237.00259	31.53489	-84.09215	-135.43228	-14.93950	419.52725	328.90457	-4.75067	363.96274	20.67322	811.68292	-206.22180	-63.60751	552.54974	-179.46613	91.19620	555.08087	-201.48058	52.82701	534.55908	696.62781	200.14876	533.18213	678.21973	
1762	17.610	-288.41632	35.91662	-70.75191	236.13898	31.59189	-83.81329	-135.77937	-14.85096	419.58154	327.95428	-4.73011	363.90607	20.25604	812.32416	-205.46771	-63.89420	553.13354	-178.63831	90.89860	555.54352	-200.95973	52.61100	534.16870	697.43890	199.73460	532.80927	678.66504	
1763	17.620	-289.21097	34.95221	-70.71541	235.86908	35.04080	-82.25303	-137.03763	-13.69026	420.17737	327.46506	-4.99985	364.10449	20.19324	812.89648	-204.20441	-64.14726	554.15594	-178.09109	90.71803	556.14801	-200.23509	52.46425	533.42316	698.24207	199.76178	532.07733	679.29572	
1764	17.630	-289.69128	34.99558	-70.54611	234.46996	45.46423	-78.72229	-137.39040	-13.64646	421.16559	326.60098	-4.84769	364.06439	20.54359	813.61340	-203.50768	-64.58466	554.69397	-177.51662	90.36150	556.41113	-199.74429	52.12680	532.85577	698.67468	199.55122	531.22809	679.91968	
